<?xml version="1.0" encoding="utf-8"?>
<!-- Generator: Adobe Illustrator 20.1.0, SVG Export Plug-In . SVG Version: 6.00 Build 0)  -->
<svg version="1.1" id="Capa_1" xmlns="http://www.w3.org/2000/svg" xmlns:xlink="http://www.w3.org/1999/xlink" x="0px" y="0px"
	 viewBox="0 0 481.7 481.7" style="enable-background:new 0 0 481.7 481.7;" xml:space="preserve">
<path d="M423,163.1c5.8,3.8,12.7,5.9,19.7,5.9c9.6,0,18.9-3.8,25.7-10.7c14.2-14.2,14.2-37.2,0-51.4L374,12.5
	c-14.2-14.2-37.2-14.2-51.4,0c-6.8,6.8-10.7,16.1-10.7,25.7c0,7.1,2.1,13.9,5.9,19.8L191.7,166.4c-5.3-2.4-10.7-4.4-16.3-5.9
	L36.1,13.5L25.3,23.7l126.4,133.4c-0.6,0-1.2,0-1.8,0c-26.4,0-51.7,10.5-70.4,29.2c-13.6,13.6-13.6,35.7,0,49.3l56.7,56.7L2.3,478.5
	l186.2-134l56.7,56.7c13.6,13.6,35.7,13.6,49.4,0c16.9-16.9,27.1-39.2,28.9-62.9l121.8,128.5l10.8-10.2L322.6,315.8
	c-1.5-9.3-4.2-18.2-8.1-26.7L423,163.1z"/>
</svg>
